<svg xmlns="http://www.w3.org/2000/svg" viewBox="0 0 71.38 71.54"><defs><style>.cls-1{fill:#f59e0b;}</style></defs><g id="Layer_2" data-name="Layer 2"><g id="BG"><path class="cls-1" d="M71.12,47.2A1.35,1.35,0,0,0,70,46.65c-3.66,0-6.14-1.83-9-4-.62-.46-1.24-.92-1.89-1.37a17.82,17.82,0,0,0-10.67-3.69c-2,0-3.63,0-4.94,0H33.45a4,4,0,0,0,0,8h9.36a2.66,2.66,0,0,1,.88,4.88l-3.48.93c-1.19.28-2.4.6-3.56.94l-.25.06c-6.48,1.72-8.66,2.28-9.3,2.44a4.41,4.41,0,0,1-.76,0L11.66,45.41,9,43.47l-.16-.1a4.16,4.16,0,0,0-.42-.23,4.76,4.76,0,0,0-.85-.35,5.86,5.86,0,0,0-.71-.15,4.86,4.86,0,0,0-1.75,0A5.61,5.61,0,0,0,0,48.26a5.51,5.51,0,0,0,1.65,4l.07.08A5.38,5.38,0,0,0,3,53.22L27.34,70.88a1.62,1.62,0,0,0,.37.19l.2.07.07,0a6.37,6.37,0,0,0,2.1.37,6.8,6.8,0,0,0,1.26-.12l.08,0,.11,0C47,67.44,58,64.65,63.49,63.3l.15,0,.48-.18a28,28,0,0,1,5.9-1,1.34,1.34,0,0,0,1.34-1.34v-.89a2,2,0,0,0,0-.25l0-11.36A1.34,1.34,0,0,0,71.12,47.2ZM68.69,59.47a39.85,39.85,0,0,0-5.29,1l-.16,0-.46.17c-5.51,1.36-16.54,4.14-31.92,8.06l-.07,0a3.65,3.65,0,0,1-1.92-.15L4.48,51a1,1,0,0,0-.17-.1,2.87,2.87,0,0,1-.71-.52l0,0a2.9,2.9,0,0,1-.88-2.08,2.94,2.94,0,0,1,2.71-2.94l.16,0a2.32,2.32,0,0,1,.88,0,2.53,2.53,0,0,1,.34.07,2.85,2.85,0,0,1,.43.18l.25.14.06,0,2.61,1.89.06,0L25.1,57.31a1.38,1.38,0,0,0,.41.18,6.6,6.6,0,0,0,1.85.14l.24,0c.67-.16,3.87-1,9.48-2.48l.28-.07q1.74-.49,3.51-.93l3.69-1a1.88,1.88,0,0,0,.3-.12,5.34,5.34,0,0,0-1.72-10l-.22,0H33.45a1.34,1.34,0,1,1,0-2.67H43.58c1.33,0,2.93-.06,4.9-.06a15.24,15.24,0,0,1,9.14,3.21c.62.44,1.23.88,1.82,1.33,2.67,2,5.42,4,9.24,4.42v8.82l0,1.31A.19.19,0,0,0,68.69,59.47Z"/><path class="cls-1" d="M46,1.38V1.31A1.33,1.33,0,0,0,44.73,0h-.14a22.64,22.64,0,0,0-21,14.08,18.46,18.46,0,0,0-5.13-10l-.3-.27-.13-.11a1.36,1.36,0,0,0-1.8,0l-.09.08A18.42,18.42,0,0,0,15.48,29l0,.06L7.39,37.22l1.39,1.4,8.14-8.15.06.05a18.44,18.44,0,0,0,25.27-.7.37.37,0,0,1,.06-.07,1.4,1.4,0,0,0,0-1.84l-.06-.07a18.33,18.33,0,0,0-10.83-5.25A22.56,22.56,0,0,0,46,1.38ZM39.37,28.83a15.76,15.76,0,0,1-20.61-.3l-.19-.17-.12-.1-.21-.19-.19-.18c-.13-.13-.25-.27-.37-.4l-.21-.24A15.76,15.76,0,0,1,17.2,6.61a15.74,15.74,0,0,1,1.23,19.44,1.34,1.34,0,0,0,1.86,1.86A15.72,15.72,0,0,1,39.37,28.83ZM24.65,21.34A19.36,19.36,0,0,1,25,19h0A20,20,0,0,1,43.29,2.72,19.88,19.88,0,0,1,24.65,21.34Z"/></g></g></svg>