<svg xmlns="http://www.w3.org/2000/svg" viewBox="0 0 73.67 73.67"><defs><style>.cls-1{fill:#f59e0b;}</style></defs><g id="Layer_2" data-name="Layer 2"><g id="Object"><path class="cls-1" d="M36.83,73.67A36.84,36.84,0,1,1,73.67,36.83,36.88,36.88,0,0,1,36.83,73.67ZM36.83,2A34.84,34.84,0,1,0,71.67,36.83,34.88,34.88,0,0,0,36.83,2Z"/><path class="cls-1" d="M36.71,73.3a1,1,0,0,1-.17-2c14.18-2.43,24.87-17.26,24.87-34.49,0-17-10.08-31.39-24-34.31A1,1,0,1,1,37.85.57C52.66,3.68,63.41,18.93,63.41,36.83,63.41,55,52,70.69,36.88,73.29Z"/><path class="cls-1" d="M36.84,73.3h-.18C21.6,70.69,10.25,55,10.25,36.83,10.25,18.93,21,3.68,35.69.57a1,1,0,1,1,.42,2C22.28,5.44,12.25,19.87,12.25,36.83c0,17.23,10.64,32.06,24.75,34.49a1,1,0,0,1-.16,2Z"/><path class="cls-1" d="M36.83,23.49a36.59,36.59,0,0,1-26-10.79l1.41-1.41a34.61,34.61,0,0,0,24.63,10.2A34.58,34.58,0,0,0,61.7,11.05l1.43,1.4A36.57,36.57,0,0,1,36.83,23.49Z"/><path class="cls-1" d="M12,62.63l-1.43-1.4A36.83,36.83,0,0,1,62.88,61l-1.42,1.41a34.83,34.83,0,0,0-49.5.25Z"/><rect class="cls-1" x="1" y="35.83" width="71.67" height="2"/><path class="cls-1" d="M36.83,73.67a1,1,0,0,1-1-1V1a1,1,0,0,1,2,0V72.67A1,1,0,0,1,36.83,73.67Z"/></g></g></svg>