<svg xmlns="http://www.w3.org/2000/svg" viewBox="0 0 73 59.67"><defs><style>.cls-1{fill:#f59e0b;}</style></defs><g id="Layer_2" data-name="Layer 2"><g id="Object"><path class="cls-1" d="M72,59.67H1a1,1,0,0,1-1-1V6.08a1,1,0,0,1,1-1H72a1,1,0,0,1,1,1V58.67A1,1,0,0,1,72,59.67Zm-70-2H71V7.08H2Z"/><path class="cls-1" d="M34.12,54A19.27,19.27,0,1,1,53.4,34.75,19.29,19.29,0,0,1,34.12,54Zm0-36.54A17.27,17.27,0,1,0,51.4,34.75,17.29,17.29,0,0,0,34.12,17.48Z"/><path class="cls-1" d="M20.27,2H5.6a1,1,0,0,1,0-2H20.27a1,1,0,0,1,0,2Z"/><path class="cls-1" d="M66.85,18.79H54.35a1,1,0,0,1-1-1V11.54a1,1,0,0,1,1-1h12.5a1,1,0,0,1,1,1v6.25A1,1,0,0,1,66.85,18.79Zm-11.5-2h10.5V12.54H55.35Z"/></g></g></svg>