<svg xmlns="http://www.w3.org/2000/svg" viewBox="0 0 88.26 71.47"><defs><style>.cls-1{opacity:0.9;}.cls-2{fill:#f59e0b;}</style></defs><g id="Layer_2" data-name="Layer 2"><g id="BG"><g class="cls-1"><path class="cls-2" d="M48.91,0H1.4A1.49,1.49,0,0,0,0,1.53v58A1.5,1.5,0,0,0,1.4,61H36.5v8.83c0,1.06,1.22,2,2.11,1.32l3-2.42L43.76,67c.18-.15.45-.32.69-.48a4.2,4.2,0,0,1,.38.3,26.79,26.79,0,0,0,2.1,1.73l3.23,2.65A1.05,1.05,0,0,0,51.74,71a1.44,1.44,0,0,0,.53-1.18V61H86.86a1.24,1.24,0,0,0,1-.41s0,0,0,0,0,0,0,0a1.49,1.49,0,0,0,.38-1.05V1.53A1.49,1.49,0,0,0,86.86,0H48.91ZM36.5,58H2.8V3.07H36.5Zm13,8.84-4.36-3.57a1.25,1.25,0,0,0-1.41,0l-4.4,3.59V3.07H49.47Zm2.8-63.72H85.46V58H52.27Z"/><path class="cls-2" d="M9.17,17.47H29c1.2,0,1.21-2,0-2H9.17C8,15.43,8,17.47,9.17,17.47Z"/><path class="cls-2" d="M9.17,26.07H29c1.2,0,1.21-2,0-2H9.17C8,24,8,26.07,9.17,26.07Z"/><path class="cls-2" d="M9.17,34.67H29c1.2,0,1.21-2,0-2H9.17C8,32.63,8,34.67,9.17,34.67Z"/><path class="cls-2" d="M9.17,43.27H29c1.2,0,1.21-2.05,0-2.05H9.17C8,41.22,8,43.27,9.17,43.27Z"/><path class="cls-2" d="M79.2,15.43H59.4c-1.2,0-1.2,2,0,2H79.2C80.4,17.47,80.4,15.43,79.2,15.43Z"/><path class="cls-2" d="M79.2,24H59.4c-1.2,0-1.2,2,0,2H79.2C80.4,26.07,80.4,24,79.2,24Z"/><path class="cls-2" d="M79.2,32.63H59.4c-1.2,0-1.2,2,0,2H79.2C80.4,34.67,80.4,32.63,79.2,32.63Z"/><path class="cls-2" d="M79.2,41.22H59.4c-1.2,0-1.2,2.05,0,2.05H79.2C80.4,43.27,80.4,41.22,79.2,41.22Z"/></g></g></g></svg>