<svg xmlns="http://www.w3.org/2000/svg" viewBox="0 0 72.06 72.06"><defs><style>.cls-1{fill:#f59e0b;}</style></defs><g id="Layer_2" data-name="Layer 2"><g id="Object"><path class="cls-1" d="M36.05,58.44a22.8,22.8,0,1,1,22.8-22.8A22.83,22.83,0,0,1,36.05,58.44Zm0-43.59a20.8,20.8,0,1,0,20.8,20.79A20.82,20.82,0,0,0,36.05,14.85Z"/><path class="cls-1" d="M36,9.93a1,1,0,0,1-1-1V1a1,1,0,0,1,2,0V8.93A1,1,0,0,1,36,9.93Z"/><path class="cls-1" d="M36,72.06a1,1,0,0,1-1-1V63.12a1,1,0,0,1,2,0v7.94A1,1,0,0,1,36,72.06Z"/><path class="cls-1" d="M55.19,17.87a1,1,0,0,1-.71-.29,1,1,0,0,1,0-1.42l5.61-5.61A1,1,0,0,1,61.51,12L55.9,17.58A1,1,0,0,1,55.19,17.87Z"/><path class="cls-1" d="M11.26,61.8a1,1,0,0,1-.71-.29,1,1,0,0,1,0-1.42l5.61-5.61a1,1,0,0,1,1.42,1.42L12,61.51A1,1,0,0,1,11.26,61.8Z"/><path class="cls-1" d="M71.06,37H63.12a1,1,0,0,1,0-2h7.94a1,1,0,0,1,0,2Z"/><path class="cls-1" d="M8.94,37H1a1,1,0,0,1,0-2H8.94a1,1,0,0,1,0,2Z"/><path class="cls-1" d="M60.8,61.8a1,1,0,0,1-.71-.29L54.48,55.9a1,1,0,0,1,1.42-1.42l5.61,5.61a1,1,0,0,1,0,1.42A1,1,0,0,1,60.8,61.8Z"/><path class="cls-1" d="M16.87,17.87a1,1,0,0,1-.71-.29L10.55,12A1,1,0,0,1,12,10.55l5.61,5.61a1,1,0,0,1,0,1.42A1,1,0,0,1,16.87,17.87Z"/></g></g></svg>