<svg xmlns="http://www.w3.org/2000/svg" viewBox="0 0 73.67 73.67"><defs><style>.cls-1{fill:#f59e0b;}</style></defs><g id="Layer_2" data-name="Layer 2"><g id="Object"><path class="cls-1" d="M36.83,73.67A36.84,36.84,0,1,1,73.67,36.83,36.88,36.88,0,0,1,36.83,73.67ZM36.83,2A34.84,34.84,0,1,0,71.67,36.83,34.88,34.88,0,0,0,36.83,2Z"/><path class="cls-1" d="M25.33,48.76A1,1,0,0,1,24.65,47l8.9-8.46a1,1,0,0,1,1.42,0,1,1,0,0,1,0,1.41L26,48.48A1,1,0,0,1,25.33,48.76Z"/><path class="cls-1" d="M36.83,34.3a1,1,0,0,1-1-1v-23a1,1,0,1,1,2,0v23A1,1,0,0,1,36.83,34.3Z"/><path class="cls-1" d="M36.83,40.83a4,4,0,1,1,4-4A4,4,0,0,1,36.83,40.83Zm0-6a2,2,0,1,0,2,2A2,2,0,0,0,36.83,34.83Z"/></g></g></svg>