<svg xmlns="http://www.w3.org/2000/svg" viewBox="0 0 43.53 72.25"><defs><style>.cls-1{fill:#f59e0b;}</style></defs><g id="Layer_2" data-name="Layer 2"><g id="Object"><path class="cls-1" d="M21.77,72.25a1,1,0,0,1-.91-.58L2,31.41a22.43,22.43,0,0,1,1.26-21A21.24,21.24,0,0,1,20.57,0c.79,0,1.6,0,2.4,0a21.21,21.21,0,0,1,17.28,10.4,22.38,22.38,0,0,1,1.26,21L22.67,71.67A1,1,0,0,1,21.77,72.25ZM21.77,2c-.37,0-.74,0-1.1,0A19.27,19.27,0,0,0,5,11.47a20.41,20.41,0,0,0-1.15,19.1L21.77,68.89,39.7,30.56a20.42,20.42,0,0,0-1.16-19.09A19.27,19.27,0,0,0,22.87,2Z"/><path class="cls-1" d="M21.77,33.81A11.94,11.94,0,1,1,33.71,21.87,12,12,0,0,1,21.77,33.81Zm0-21.88a9.94,9.94,0,1,0,9.94,9.94A10,10,0,0,0,21.77,11.93Z"/></g></g></svg>