<svg xmlns="http://www.w3.org/2000/svg" viewBox="0 0 457.98 471.88"><defs><style>.cls-1,.cls-2{fill:#92400e;}.cls-2{font-size:60px;font-family:Poppins-Bold, Poppins;font-weight:700;}</style></defs><g id="Layer_2" data-name="Layer 2"><g id="Text"><path class="cls-1" d="M411.78,107.21l5-101.56s-45.77.72-109.42,0C213,7.08,232.28,89.33,232.28,89.33l6.36,6.77a94.16,94.16,0,0,0-14.25-.34C249.32,5,148.39,5,148.39,5L46.84,0s.72,45.77,0,109.42c1.43,94.4,83.67,75.09,83.67,75.09s2.61-2.44,6.88-6.46a94.14,94.14,0,0,0-.46,14.34c-90.71-24.9-90.74,76-90.74,76L41.19,370s45.77-.72,109.42,0c94.4-1.43,75.09-83.68,75.09-83.68l-5.82-6.2a92.75,92.75,0,0,0,13.54.4c-24.28,90.09,76.16,90.12,76.16,90.12l101.56,5s-.72-45.77,0-109.42c-1.43-94.4-83.68-75.09-83.68-75.09l-6.11,5.73a91.63,91.63,0,0,0,.29-13.46C411.75,207.65,411.78,107.21,411.78,107.21ZM392,19.54a10.83,10.83,0,1,1-10.82,10.83A10.83,10.83,0,0,1,392,19.54ZM69.85,33.07A10.83,10.83,0,1,1,80.68,22.25,10.82,10.82,0,0,1,69.85,33.07ZM64.44,357.88a10.83,10.83,0,1,1,10.82-10.82A10.82,10.82,0,0,1,64.44,357.88Zm322.1-16.24a10.83,10.83,0,1,1-10.83,10.83A10.83,10.83,0,0,1,386.54,341.64Zm-262-238.5c-3.15-9.81,8.2-20.9,17.86-17.45l48.21,17.18c-3.89,2.27-7.67,4.79-11.38,7.45-.57.37-1.14.74-1.7,1.12l-1,.67c-.85.59-1.7,1.19-2.53,1.81-.49.36-1,.74-1.44,1.11-.67.52-1.35,1-2,1.59s-1.35,1.14-2,1.72c-.46.4-.93.79-1.39,1.2-1.13,1-2.24,2.08-3.33,3.17s-2.07,2.13-3.06,3.22c-.34.37-.66.76-1,1.13-.64.72-1.27,1.44-1.87,2.18-.33.39-.64.78-1,1.17a137.93,137.93,0,0,0-16.28,23.09ZM144.43,289.9c-9.51,3.05-20.27-7.95-16.93-17.32l16.67-46.77c1,1.64,2,3.25,3,4.86.75,1.17,1.5,2.34,2.29,3.5A122.93,122.93,0,0,0,181,266.34c1.74,1.24,3.49,2.48,5.28,3.64,2.3,1.48,4.63,2.9,7,4.23Zm36.29-53.83a68.28,68.28,0,1,1,96.56,0A68.27,68.27,0,0,1,180.72,236.07Zm146.89,38.3c2.77,9.36-8.23,19.62-17.3,16.14l-45-17.24-.3-.11c1.68-.93,3.32-1.94,5-2.94a122.55,122.55,0,0,0,39.47-37.7c1.37-2.05,2.72-4.12,4-6.23l0,.15Zm5.71-170.9-18.73,48.88-.23.59c-.21-.38-.45-.74-.66-1.12a139.64,139.64,0,0,0-20.56-28,136.39,136.39,0,0,0-17-15c-.77-.58-1.54-1.14-2.31-1.7q-5.2-3.73-10.64-7l52.51-15.51C325.91,81.55,337.11,93.55,333.32,103.47Z"/><text class="cls-2" transform="translate(0 435.52)">CITRA WASTRA</text></g></g></svg>