<svg id="Layer_1" data-name="Layer 1" xmlns="http://www.w3.org/2000/svg" xmlns:xlink="http://www.w3.org/1999/xlink" viewBox="0 0 496 300.62"><defs><style>.cls-1{fill:url(#linear-gradient);}.cls-2{fill:url(#linear-gradient-2);}.cls-3{fill:url(#linear-gradient-3);}.cls-4{fill:url(#linear-gradient-4);}.cls-5{fill:url(#linear-gradient-5);}.cls-6{fill:url(#linear-gradient-6);}.cls-7,.cls-8{isolation:isolate;font-family:Poppins-Regular, Poppins;}.cls-7{font-size:48px;fill:#402b35;}.cls-8{font-size:24px;letter-spacing:0.19em;}</style><linearGradient id="linear-gradient" x1="160.41" y1="579.49" x2="440.1" y2="408.28" gradientTransform="matrix(1, 0, 0, -1, 0, 802)" gradientUnits="userSpaceOnUse"><stop offset="0" stop-color="#eea816"/><stop offset="0.13" stop-color="#eaa019"/><stop offset="0.33" stop-color="#e08c20"/><stop offset="0.58" stop-color="#cf6e25"/><stop offset="0.87" stop-color="#ba4526"/><stop offset="1" stop-color="#b02d24"/></linearGradient><linearGradient id="linear-gradient-2" x1="397.74" y1="278.45" x2="648" y2="278.45" gradientTransform="matrix(1, 0, 0, 1, 0, 0)" xlink:href="#linear-gradient"/><linearGradient id="linear-gradient-3" x1="585.9" y1="576.18" x2="427.49" y2="413.7" xlink:href="#linear-gradient"/><linearGradient id="linear-gradient-4" x1="193.94" y1="550.97" x2="385.58" y2="457.55" xlink:href="#linear-gradient"/><linearGradient id="linear-gradient-5" x1="393.33" y1="477.95" x2="450.19" y2="441.76" xlink:href="#linear-gradient"/><linearGradient id="linear-gradient-6" x1="427.48" y1="606.44" x2="352.89" y2="449.14" gradientTransform="matrix(1, 0, 0, -1, -152, 592.89)" xlink:href="#linear-gradient"/></defs><path class="cls-1" d="M152,221.66s48.6,37.56,184.82,39c0,0,12.52-1.47,16.57,12.15,0,0-24.3,1.47-12.52,15.83s40,44,90.94,57.07c4.73,1.22,3.6,6.43-3.27,4.47-6.69-1.9-8.48-2-4.86.8,4.81,3.71,7.39,14.24-9.54,18.66,0,0,2.89,14.11,15.38,18.66,8.43,3.07,15,12.2,7.08,19.26,0,0,3.31-9.57-4.79-14,0,0,3.68,11.41-3.68,18,0,0,3.11-11.82-4.62-13.66,0,0-.71,5.3-3.1,6.87,0,0,0-6.76-3.48-7.38-1.41-.25-4.2,2-3.41,6.73,0,0-7.94-7.15,4.42-15.22,0,0-3.51-3.25-12,.65,0,0,14-11.58-6.93-12.23,0,0-48.1-2.21-22.82,8.1,0,0-27.62-6.67-6.26,11.05,1.56,1.3,4.41,5.15-2.58,7.73,0,0-1.47-14.36-9.57,3.31,0,0-4.05-3.31-2.21-7.36,0,0-9.57,2.94-5.15,11.41,0,0-7.16-2.34-4.22-14.12,0,0-7.31,1.76-3.89,9.7,0,0-11.52-9.16,10.69-16.68,0,0,1.17-13.27,12.51-19,0,0-20.71-2.72-33.54-8.33-23.48-10.28-37.94-28.25-45-35.3,29.26,17.47,72.23,20.27,89.19,13.91,0,0,8.19,5.79,17.13,6.52,0,0-13.84.44-68.27-64-7.55-8.94-23.11-13.56-60.48-15.4C229.47,267.17,170.34,249.3,152,221.66Z" transform="translate(-152 -209.11)"/><path class="cls-2" d="M397.74,326.64s26.82,1.48,40.41-13.38c10.54-11.53,36-35.57,9.17-39.15,0,0,.68-13.92,19.92-13.78S577.75,262.52,648,221.67c0,0-22.1,46-137.56,52.43-34.54,1.94-34.39,10.38-81.7,61.14C428.74,335.24,413.33,331.63,397.74,326.64Z" transform="translate(-152 -209.11)"/><path class="cls-3" d="M430.86,335.87s32.82-35.08,41.32-43.88c25.32-26.16,59.22-4.21,130-33,0,0-8.28,14-35.8,20.46,0,0-.17,4.82,8.26,5.19,0,0-17.65,14.42-35.77,14.68,0,0,1.33,4.92,7.56,5.29,0,0-8.68,8.17-28.26,7.05,0,0,1.88,5,9.2,5,0,0-9.86,11.25-32.13,7.79,0,0,1.17,4.38,7.58,4.93,0,0-8.47,8.72-28.61,6.71,0,0,1.86,4.65,8.64,5.38,0,0-19.38,11.84-39.28,5.35C443.53,346.81,443.24,340.16,430.86,335.87Z" transform="translate(-152 -209.11)"/><path class="cls-4" d="M325.25,289.14c-23.26-26.52-58.94-4.88-132.13-34.64,0,0,10.45,15.63,38,22.12,0,0,.17,4.82-8.26,5.19,0,0,17.65,14.42,35.77,14.68,0,0-1.33,4.92-7.55,5.29,0,0,8.67,8.17,28.25,7.06,0,0-1.87,5-9.2,5,0,0,9.86,11.25,32.13,7.79,0,0-7.81,3.45-14.23,4,0,0,17.48,13,35.26,7.63,0,0-2.54,3-9.33,3.73,0,0,33.31,9.89,60.7,2.9C366.29,334.65,330.29,294.89,325.25,289.14Z" transform="translate(-152 -209.11)"/><path class="cls-5" d="M389.44,326.64c4.91.19,21.46,6.44,37.81,10.26,11.06,2.58,15.19,8.42,15,14.6,0,0,7.9,4.64,4.75,11.06,0,0-5.54-8.3-11.95-6.82,0,0,5.13,2.47,3.45,6,0,0-7.8.79-11.65-10.37,0,0,8.1,2.07,9.23-1.34.64-1.92,1-5.18-6.07-6.66C423.81,342.1,399.9,333.75,389.44,326.64Z" transform="translate(-152 -209.11)"/><polygon class="cls-6" points="248 0 259.5 35.39 296.71 35.39 266.61 57.26 278.1 92.64 248 70.77 217.9 92.64 229.4 57.26 199.29 35.39 236.5 35.39 248 0"/><text class="cls-7" transform="translate(83.8 254.86)">CITRA WASTRA</text><text x="-152" y="-209.11"/><text class="cls-8" transform="translate(120.53 286.89)">Karya Nusantara</text></svg>