<svg xmlns="http://www.w3.org/2000/svg" xmlns:xlink="http://www.w3.org/1999/xlink" viewBox="0 0 648.09 127.45"><defs><style>.cls-1{fill:url(#linear-gradient);}.cls-2{fill:url(#linear-gradient-2);}.cls-3{fill:url(#linear-gradient-3);}.cls-4{fill:url(#linear-gradient-4);}.cls-5{fill:url(#linear-gradient-5);}.cls-6{fill:url(#linear-gradient-6);}.cls-7,.cls-8{isolation:isolate;fill:#b45309;}.cls-7{font-size:48px;font-family:Poppins-SemiBold, Poppins;font-weight:600;}.cls-8{font-size:24px;font-family:Poppins-Medium, Poppins;font-weight:500;letter-spacing:0.3em;}</style><linearGradient id="linear-gradient" x1="157.31" y1="415.53" x2="333.38" y2="523.31" gradientTransform="translate(-152 -407.11)" gradientUnits="userSpaceOnUse"><stop offset="0" stop-color="#eea816"/><stop offset="0.13" stop-color="#eaa019"/><stop offset="0.33" stop-color="#e08c20"/><stop offset="0.58" stop-color="#cf6e25"/><stop offset="0.87" stop-color="#ba4526"/><stop offset="1" stop-color="#b02d24"/></linearGradient><linearGradient id="linear-gradient-2" x1="306.7" y1="353.04" x2="464.25" y2="353.04" gradientTransform="matrix(1, 0, 0, -1, -152, 396.69)" xlink:href="#linear-gradient"/><linearGradient id="linear-gradient-3" x1="425.16" y1="417.63" x2="325.43" y2="519.92" xlink:href="#linear-gradient"/><linearGradient id="linear-gradient-4" x1="178.4" y1="433.51" x2="299.04" y2="492.32" xlink:href="#linear-gradient"/><linearGradient id="linear-gradient-5" x1="303.93" y1="479.47" x2="339.72" y2="502.25" xlink:href="#linear-gradient"/><linearGradient id="linear-gradient-6" x1="325.42" y1="398.58" x2="278.47" y2="497.6" xlink:href="#linear-gradient"/></defs><g id="Layer_2" data-name="Layer 2"><g id="Layer_1-2" data-name="Layer 1"><path class="cls-1" d="M0,7.9S30.6,31.55,116.35,32.45c0,0,7.88-.92,10.43,7.65,0,0-15.3.93-7.88,10S144.08,77.77,176.15,86c3,.77,2.27,4.05-2.06,2.82s-5.34-1.26-3.06.5c3,2.34,4.66,9-6,11.75,0,0,1.82,8.88,9.68,11.75,5.31,1.93,9.44,7.68,4.46,12.12,0,0,2.08-6-3-8.81,0,0,2.32,7.18-2.32,11.33,0,0,2-7.44-2.9-8.6,0,0-.45,3.34-2,4.33,0,0,0-4.26-2.19-4.65-.88-.16-2.64,1.26-2.14,4.24,0,0-5-4.5,2.78-9.59,0,0-2.21-2-7.56.41,0,0,8.82-7.29-4.36-7.7,0,0-30.28-1.39-14.36,5.1,0,0-17.39-4.2-3.94,7,1,.82,2.77,3.24-1.63,4.87,0,0-.92-9-6,2.08,0,0-2.55-2.08-1.39-4.63,0,0-6,1.85-3.25,7.18,0,0-4.5-1.47-2.65-8.89,0,0-4.61,1.11-2.45,6.11,0,0-7.25-5.77,6.73-10.5,0,0,.73-8.36,7.87-12,0,0-13-1.72-21.11-5.25C98.52,90.49,89.41,79.18,85,74.74c18.42,11,45.47,12.76,56.15,8.76,0,0,5.15,3.64,10.78,4.1,0,0-8.71.28-43-40.29-4.75-5.63-14.55-8.54-38.07-9.7C48.77,36.55,11.55,25.3,0,7.9Z"/><path class="cls-2" d="M154.7,74s16.89.93,25.44-8.42c6.64-7.26,22.67-22.4,5.78-24.65,0,0,.42-8.76,12.54-8.68S268,33.62,312.25,7.91c0,0-13.91,29-86.6,33C203.91,42.13,204,47.45,174.22,79.4,174.22,79.4,164.52,77.13,154.7,74Z"/><path class="cls-3" d="M175.55,79.8s20.66-22.08,26-27.62c15.94-16.47,37.28-2.65,81.84-20.78,0,0-5.22,8.81-22.54,12.88,0,0-.11,3,5.2,3.27,0,0-11.11,9.08-22.52,9.24a5,5,0,0,0,4.76,3.33s-5.47,5.14-17.79,4.44c0,0,1.18,3.15,5.79,3.15,0,0-6.21,7.08-20.23,4.9,0,0,.74,2.76,4.77,3.1,0,0-5.33,5.49-18,4.23,0,0,1.17,2.93,5.44,3.39,0,0-12.2,7.45-24.73,3.36C183.53,86.69,183.35,82.5,175.55,79.8Z"/><path class="cls-4" d="M109.07,50.38C94.42,33.69,72,47.31,25.89,28.57c0,0,6.58,9.84,23.92,13.93,0,0,.11,3-5.2,3.27,0,0,11.11,9.08,22.52,9.24a5,5,0,0,1-4.76,3.33s5.46,5.14,17.79,4.44c0,0-1.18,3.15-5.79,3.15,0,0,6.2,7.08,20.22,4.91a34,34,0,0,1-9,2.51s11,8.19,22.19,4.81c0,0-1.6,1.89-5.87,2.35,0,0,21,6.22,38.21,1.82C134.9,79,112.24,54,109.07,50.38Z"/><path class="cls-5" d="M149.48,74c3.09.12,13.51,4.05,23.8,6.46,7,1.62,9.56,5.3,9.44,9.19,0,0,5,2.92,3,7,0,0-3.48-5.22-7.52-4.29,0,0,3.23,1.55,2.17,3.78,0,0-4.91.49-7.33-6.53,0,0,5.1,1.3,5.81-.85.4-1.2.63-3.26-3.82-4.19C171.11,83.72,156.06,78.47,149.48,74Z"/><polygon class="cls-6" points="156.13 0 163.37 22.28 186.79 22.28 167.84 36.05 175.07 58.32 156.13 44.55 137.18 58.32 144.42 36.05 125.46 22.28 148.89 22.28 156.13 0"/><text class="cls-7" transform="translate(288.05 87.24)">CITRA WASTRA</text><text class="cls-8" transform="translate(313.15 113.48)">Karya Nusantara</text></g></g></svg>